<svg xmlns="http://www.w3.org/2000/svg" viewBox="0 0 120 300" shape-rendering="crispEdges">
  <rect width="120" height="300" fill="none"/>

  <g fill="#7cc6ff" opacity="0.25">
    <rect x="54" y="16" width="12" height="3"/>
    <rect x="58" y="28" width="8" height="3"/>
  </g>

  <g fill="#f4d56d">
    <rect x="50" y="34" width="6" height="6"/>
    <rect x="56" y="28" width="6" height="6"/>
    <rect x="62" y="22" width="6" height="6"/>
    <rect x="68" y="28" width="6" height="6"/>
    <rect x="74" y="34" width="6" height="6"/>
    <rect x="56" y="40" width="18" height="6"/>
  </g>

  <g fill="#f0c8a2">
    <rect x="58" y="46" width="14" height="10"/>
  </g>

  <g fill="#1d2847">
    <rect x="56" y="56" width="18" height="16"/>
    <rect x="52" y="58" width="4" height="10"/>
    <rect x="74" y="58" width="4" height="10"/>
  </g>

  <g fill="#2d4d86">
    <rect x="54" y="72" width="22" height="22"/>
    <rect x="58" y="94" width="6" height="14"/>
    <rect x="66" y="94" width="6" height="14"/>
  </g>

  <g fill="#1a2135">
    <rect x="56" y="108" width="6" height="12"/>
    <rect x="68" y="108" width="6" height="12"/>
  </g>

  <g fill="#574f66">
    <rect x="46" y="68" width="8" height="18"/>
    <rect x="44" y="74" width="2" height="10"/>
  </g>

  <g fill="#9aa4b9">
    <rect x="42" y="46" width="4" height="74"/>
    <rect x="38" y="120" width="12" height="80"/>
  </g>

  <g fill="#6b7387">
    <rect x="38" y="200" width="12" height="14"/>
  </g>

  <g fill="#9de9ff" opacity="0.35">
    <rect x="36" y="208" width="16" height="2"/>
  </g>
</svg>
