<svg xmlns="http://www.w3.org/2000/svg" viewBox="0 0 120 300" shape-rendering="crispEdges">
  <rect width="120" height="300" fill="none"/>

  <g fill="#ffbfd3" opacity="0.22">
    <rect x="52" y="14" width="14" height="3"/>
    <rect x="56" y="24" width="8" height="3"/>
  </g>

  <g fill="#7b4a33">
    <rect x="52" y="34" width="6" height="6"/>
    <rect x="58" y="28" width="6" height="6"/>
    <rect x="64" y="28" width="6" height="6"/>
    <rect x="70" y="34" width="6" height="6"/>
    <rect x="56" y="40" width="20" height="8"/>
    <rect x="58" y="48" width="16" height="4"/>
  </g>

  <g fill="#f0c8a2">
    <rect x="60" y="48" width="12" height="10"/>
  </g>

  <g fill="#b84f74">
    <rect x="56" y="58" width="20" height="18"/>
    <rect x="52" y="62" width="4" height="10"/>
    <rect x="76" y="62" width="4" height="10"/>
  </g>

  <g fill="#d97da0">
    <rect x="54" y="76" width="24" height="24"/>
    <rect x="58" y="100" width="6" height="14"/>
    <rect x="68" y="100" width="6" height="14"/>
  </g>

  <g fill="#1f2840">
    <rect x="58" y="114" width="6" height="12"/>
    <rect x="68" y="114" width="6" height="12"/>
  </g>

  <g fill="#86d2a0">
    <rect x="78" y="74" width="4" height="58"/>
    <rect x="76" y="132" width="8" height="6"/>
  </g>

  <g fill="#f7cf67">
    <rect x="76" y="68" width="8" height="8"/>
    <rect x="74" y="70" width="12" height="4"/>
    <rect x="78" y="66" width="4" height="12"/>
  </g>

  <g fill="#9de9ff" opacity="0.4">
    <rect x="74" y="66" width="12" height="12"/>
  </g>
</svg>
