  <svg xmlns="http://www.w3.org/2000/svg" viewBox="0 0 20 160" shape-rendering="crispEdges">
    <rect width="20" height="160" fill="none"/>

    <!-- Column 1 -->
    <rect x="1" y="2" width="4" height="6" fill="#a0ffb8"/>
    <rect x="1" y="12" width="4" height="6" fill="#74ff98"/>
    <rect x="1" y="22" width="4" height="6" fill="#4ae07a"/>
    <rect x="1" y="32" width="4" height="6" fill="#2fb85e"/>
    <rect x="1" y="42" width="4" height="6" fill="#1f8a4a"/>
    <rect x="1" y="52" width="4" height="6" fill="#0f4a2a"/>
    <rect x="1" y="62" width="4" height="6" fill="#a0ffb8"/>
    <rect x="1" y="72" width="4" height="6" fill="#74ff98"/>
    <rect x="1" y="82" width="4" height="6" fill="#4ae07a"/>
    <rect x="1" y="92" width="4" height="6" fill="#2fb85e"/>
    <rect x="1" y="102" width="4" height="6" fill="#1f8a4a"/>
    <rect x="1" y="112" width="4" height="6" fill="#0f4a2a"/>
    <rect x="1" y="122" width="4" height="6" fill="#a0ffb8"/>
    <rect x="1" y="132" width="4" height="6" fill="#74ff98"/>
    <rect x="1" y="142" width="4" height="6" fill="#4ae07a"/>
    <rect x="1" y="152" width="4" height="6" fill="#2fb85e"/>

    <!-- Column 2 -->
    <rect x="7" y="4" width="4" height="6" fill="#1f8a4a"/>
    <rect x="7" y="14" width="4" height="6" fill="#a0ffb8"/>
    <rect x="7" y="24" width="4" height="6" fill="#74ff98"/>
    <rect x="7" y="34" width="4" height="6" fill="#4ae07a"/>
    <rect x="7" y="44" width="4" height="6" fill="#2fb85e"/>
    <rect x="7" y="54" width="4" height="6" fill="#1f8a4a"/>
    <rect x="7" y="64" width="4" height="6" fill="#0f4a2a"/>
    <rect x="7" y="74" width="4" height="6" fill="#1f8a4a"/>
    <rect x="7" y="84" width="4" height="6" fill="#a0ffb8"/>
    <rect x="7" y="94" width="4" height="6" fill="#74ff98"/>
    <rect x="7" y="104" width="4" height="6" fill="#4ae07a"/>
    <rect x="7" y="114" width="4" height="6" fill="#2fb85e"/>
    <rect x="7" y="124" width="4" height="6" fill="#1f8a4a"/>
    <rect x="7" y="134" width="4" height="6" fill="#0f4a2a"/>
    <rect x="7" y="144" width="4" height="6" fill="#a0ffb8"/>
    <rect x="7" y="154" width="4" height="6" fill="#74ff98"/>

    <!-- Column 3 -->
    <rect x="13" y="6" width="4" height="6" fill="#0f4a2a"/>
    <rect x="13" y="16" width="4" height="6" fill="#1f8a4a"/>
    <rect x="13" y="26" width="4" height="6" fill="#a0ffb8"/>
    <rect x="13" y="36" width="4" height="6" fill="#74ff98"/>
    <rect x="13" y="46" width="4" height="6" fill="#4ae07a"/>
    <rect x="13" y="56" width="4" height="6" fill="#2fb85e"/>
    <rect x="13" y="66" width="4" height="6" fill="#1f8a4a"/>
    <rect x="13" y="76" width="4" height="6" fill="#0f4a2a"/>
    <rect x="13" y="86" width="4" height="6" fill="#1f8a4a"/>
    <rect x="13" y="96" width="4" height="6" fill="#a0ffb8"/>
    <rect x="13" y="106" width="4" height="6" fill="#74ff98"/>
    <rect x="13" y="116" width="4" height="6" fill="#4ae07a"/>
    <rect x="13" y="126" width="4" height="6" fill="#2fb85e"/>
    <rect x="13" y="136" width="4" height="6" fill="#1f8a4a"/>
    <rect x="13" y="146" width="4" height="6" fill="#0f4a2a"/>
    <rect x="13" y="156" width="4" height="6" fill="#a0ffb8"/>

    <!-- Bright leading character highlights -->
    <rect x="1" y="2" width="4" height="6" fill="none" stroke="#d9ffe7" stroke-width="1"/>
    <rect x="1" y="62" width="4" height="6" fill="none" stroke="#d9ffe7" stroke-width="1"/>
    <rect x="1" y="122" width="4" height="6" fill="none" stroke="#d9ffe7" stroke-width="1"/>
    <rect x="7" y="14" width="4" height="6" fill="none" stroke="#d9ffe7" stroke-width="1"/>
    <rect x="7" y="84" width="4" height="6" fill="none" stroke="#d9ffe7" stroke-width="1"/>
    <rect x="7" y="144" width="4" height="6" fill="none" stroke="#d9ffe7" stroke-width="1"/>
    <rect x="13" y="26" width="4" height="6" fill="none" stroke="#d9ffe7" stroke-width="1"/>
    <rect x="13" y="96" width="4" height="6" fill="none" stroke="#d9ffe7" stroke-width="1"/>
  </svg>
