  <svg xmlns="http://www.w3.org/2000/svg" viewBox="0 0 28 28" shape-rendering="crispEdges">
    <rect width="28" height="28" fill="none"/>
    <!-- Base crystal -->
    <rect x="10" y="2" width="8" height="4" fill="#f7cf67"/>
    <rect x="8" y="6" width="12" height="4" fill="#f7cf67"/>
    <rect x="6" y="10" width="16" height="6" fill="#f7cf67"/>
    <rect x="7" y="16" width="14" height="4" fill="#d9a52e"/>
    <rect x="8" y="20" width="12" height="3" fill="#b8861e"/>
    <rect x="10" y="23" width="8" height="3" fill="#8a6614"/>
    <!-- Inner glow -->
    <rect x="11" y="4" width="6" height="2" fill="#fff4d4"/>
    <rect x="9" y="8" width="10" height="2" fill="#fff4d4"/>
    <rect x="8" y="12" width="12" height="2" fill="#ffe7a1"/>
    <rect x="9" y="14" width="10" height="2" fill="#ffe7a1"/>
    <!-- Highlight -->
    <rect x="12" y="3" width="2" height="1" fill="#ffffff"/>
    <rect x="10" y="9" width="2" height="1" fill="#ffffff"/>
    <rect x="12" y="13" width="2" height="1" fill="#ffffff"/>
    <!-- Sparkle -->
    <rect x="4" y="8" width="2" height="2" fill="#f0f8ff"/>
    <rect x="22" y="14" width="2" height="2" fill="#f0f8ff"/>
    <rect x="2" y="18" width="2" height="2" fill="#f0f8ff"/>
  </svg>
