  <svg xmlns="http://www.w3.org/2000/svg" viewBox="0 0 24 24" shape-rendering="crispEdges">
    <rect width="24" height="24" fill="none"/>
    <!-- Burst rays -->
    <rect x="11" y="0" width="2" height="4" fill="#f7cf67"/>
    <rect x="11" y="20" width="2" height="4" fill="#f7cf67"/>
    <rect x="0" y="11" width="4" height="2" fill="#f7cf67"/>
    <rect x="20" y="11" width="4" height="2" fill="#f7cf67"/>
    <rect x="4" y="3" width="2" height="3" fill="#f7cf67"/>
    <rect x="18" y="3" width="2" height="3" fill="#f7cf67"/>
    <rect x="4" y="18" width="2" height="3" fill="#f7cf67"/>
    <rect x="18" y="18" width="2" height="3" fill="#f7cf67"/>
    <rect x="2" y="5" width="3" height="2" fill="#f7cf67"/>
    <rect x="19" y="5" width="3" height="2" fill="#f7cf67"/>
    <rect x="2" y="17" width="3" height="2" fill="#f7cf67"/>
    <rect x="19" y="17" width="3" height="2" fill="#f7cf67"/>
    <!-- Inner burst -->
    <rect x="8" y="4" width="8" height="2" fill="#ffffff"/>
    <rect x="6" y="6" width="12" height="2" fill="#ffffff"/>
    <rect x="4" y="8" width="16" height="8" fill="#f0f8ff"/>
    <rect x="6" y="10" width="2" height="4" fill="#f7cf67"/>
    <rect x="16" y="10" width="2" height="4" fill="#f7cf67"/>
    <rect x="10" y="6" width="4" height="2" fill="#f7cf67"/>
    <rect x="10" y="16" width="4" height="2" fill="#f7cf67"/>
    <!-- Center -->
    <rect x="10" y="10" width="4" height="4" fill="#ff6f61"/>
    <rect x="11" y="11" width="2" height="2" fill="#ffffff"/>
  </svg>
