  <svg xmlns="http://www.w3.org/2000/svg" viewBox="0 0 24 160" shape-rendering="crispEdges">
    <rect width="24" height="160" fill="none"/>

    <!-- Column 1 (x=2): 1 0 1 0 pattern fading out -->
    <rect x="2" y="4" width="4" height="6" fill="#74ff98"/>
    <rect x="2" y="14" width="4" height="6" fill="#4ae07a"/>
    <rect x="2" y="24" width="4" height="6" fill="#2fb85e"/>
    <rect x="2" y="34" width="4" height="6" fill="#1f8a4a"/>
    <rect x="2" y="44" width="4" height="6" fill="#74ff98"/>
    <rect x="2" y="54" width="4" height="6" fill="#4ae07a"/>
    <rect x="2" y="64" width="4" height="6" fill="#2fb85e"/>
    <rect x="2" y="74" width="4" height="6" fill="#1f8a4a"/>
    <rect x="2" y="84" width="4" height="6" fill="#0f4a2a"/>
    <rect x="2" y="94" width="4" height="6" fill="#0a2e1a"/>
    <rect x="2" y="104" width="4" height="6" fill="#74ff98"/>
    <rect x="2" y="114" width="4" height="6" fill="#4ae07a"/>
    <rect x="2" y="124" width="4" height="6" fill="#2fb85e"/>
    <rect x="2" y="134" width="4" height="6" fill="#1f8a4a"/>
    <rect x="2" y="144" width="4" height="6" fill="#0f4a2a"/>

    <!-- Column 2 (x=8): Leading bright characters -->
    <rect x="8" y="4" width="4" height="6" fill="#a0ffb8"/>
    <rect x="8" y="12" width="4" height="6" fill="#74ff98"/>
    <rect x="8" y="20" width="4" height="6" fill="#4ae07a"/>
    <rect x="8" y="28" width="4" height="6" fill="#2fb85e"/>
    <rect x="8" y="36" width="4" height="6" fill="#1f8a4a"/>
    <rect x="8" y="48" width="4" height="6" fill="#a0ffb8"/>
    <rect x="8" y="56" width="4" height="6" fill="#74ff98"/>
    <rect x="8" y="64" width="4" height="6" fill="#4ae07a"/>
    <rect x="8" y="72" width="4" height="6" fill="#2fb85e"/>
    <rect x="8" y="80" width="4" height="6" fill="#1f8a4a"/>
    <rect x="8" y="92" width="4" height="6" fill="#a0ffb8"/>
    <rect x="8" y="100" width="4" height="6" fill="#74ff98"/>
    <rect x="8" y="108" width="4" height="6" fill="#4ae07a"/>
    <rect x="8" y="116" width="4" height="6" fill="#2fb85e"/>
    <rect x="8" y="124" width="4" height="6" fill="#1f8a4a"/>
    <rect x="8" y="136" width="4" height="6" fill="#a0ffb8"/>
    <rect x="8" y="144" width="4" height="6" fill="#74ff98"/>

    <!-- Column 3 (x=15): Mostly dim with occasional bright -->
    <rect x="15" y="6" width="4" height="6" fill="#1f8a4a"/>
    <rect x="15" y="16" width="4" height="6" fill="#0f4a2a"/>
    <rect x="15" y="26" width="4" height="6" fill="#74ff98"/>
    <rect x="15" y="36" width="4" height="6" fill="#4ae07a"/>
    <rect x="15" y="46" width="4" height="6" fill="#2fb85e"/>
    <rect x="15" y="56" width="4" height="6" fill="#1f8a4a"/>
    <rect x="15" y="66" width="4" height="6" fill="#0f4a2a"/>
    <rect x="15" y="78" width="4" height="6" fill="#74ff98"/>
    <rect x="15" y="88" width="4" height="6" fill="#4ae07a"/>
    <rect x="15" y="98" width="4" height="6" fill="#2fb85e"/>
    <rect x="15" y="108" width="4" height="6" fill="#1f8a4a"/>
    <rect x="15" y="118" width="4" height="6" fill="#0f4a2a"/>
    <rect x="15" y="128" width="4" height="6" fill="#0a2e1a"/>
    <rect x="15" y="140" width="4" height="6" fill="#74ff98"/>
    <rect x="15" y="150" width="4" height="6" fill="#4ae07a"/>

    <!-- Column 4 (x=20): Sparse trailing characters -->
    <rect x="20" y="8" width="4" height="6" fill="#2fb85e"/>
    <rect x="20" y="20" width="4" height="6" fill="#1f8a4a"/>
    <rect x="20" y="32" width="4" height="6" fill="#0f4a2a"/>
    <rect x="20" y="50" width="4" height="6" fill="#2fb85e"/>
    <rect x="20" y="62" width="4" height="6" fill="#1f8a4a"/>
    <rect x="20" y="74" width="4" height="6" fill="#0f4a2a"/>
    <rect x="20" y="86" width="4" height="6" fill="#0a2e1a"/>
    <rect x="20" y="102" width="4" height="6" fill="#2fb85e"/>
    <rect x="20" y="114" width="4" height="6" fill="#1f8a4a"/>
    <rect x="20" y="126" width="4" height="6" fill="#0f4a2a"/>
    <rect x="20" y="142" width="4" height="6" fill="#2fb85e"/>
    <rect x="20" y="152" width="4" height="6" fill="#1f8a4a"/>

    <!-- Glow spots on leading characters -->
    <rect x="8" y="4" width="4" height="6" fill="none" stroke="#a0ffb8" stroke-width="1" opacity="0.5"/>
    <rect x="8" y="48" width="4" height="6" fill="none" stroke="#a0ffb8" stroke-width="1" opacity="0.5"/>
    <rect x="8" y="92" width="4" height="6" fill="none" stroke="#a0ffb8" stroke-width="1" opacity="0.5"/>
    <rect x="8" y="136" width="4" height="6" fill="none" stroke="#a0ffb8" stroke-width="1" opacity="0.5"/>
    <rect x="2" y="4" width="4" height="6" fill="none" stroke="#74ff98" stroke-width="1" opacity="0.4"/>
    <rect x="15" y="26" width="4" height="6" fill="none" stroke="#74ff98" stroke-width="1" opacity="0.4"/>
    <rect x="2" y="104" width="4" height="6" fill="none" stroke="#74ff98" stroke-width="1" opacity="0.4"/>
  </svg>
