<svg xmlns="http://www.w3.org/2000/svg" viewBox="0 0 320 190" shape-rendering="crispEdges">
  <!-- Ocean background -->
  <rect width="320" height="190" fill="#114473"/>
  <!-- Deeper sea band (south) -->
  <rect y="140" width="320" height="50" fill="#0d3861"/>

  <!-- Grid overlay -->
  <g fill="#1f5b8e" opacity="0.4">
    <rect x="0" y="26" width="320" height="2"/>
    <rect x="0" y="54" width="320" height="2"/>
    <rect x="0" y="82" width="320" height="2"/>
    <rect x="0" y="110" width="320" height="2"/>
    <rect x="46" y="0" width="2" height="190"/>
    <rect x="96" y="0" width="2" height="190"/>
    <rect x="146" y="0" width="2" height="190"/>
    <rect x="196" y="0" width="2" height="190"/>
    <rect x="246" y="0" width="2" height="190"/>
  </g>

  <!-- Ocean waves - Atlantic left -->
  <g fill="#1a6aaa" opacity="0.55">
    <rect x="6" y="32" width="18" height="2"/>
    <rect x="14" y="42" width="12" height="2"/>
    <rect x="4" y="52" width="16" height="2"/>
    <rect x="10" y="64" width="20" height="2"/>
    <rect x="6" y="76" width="14" height="2"/>
    <rect x="16" y="88" width="18" height="2"/>
    <rect x="4" y="100" width="12" height="2"/>
    <rect x="24" y="44" width="10" height="2"/>
    <rect x="30" y="58" width="8" height="2"/>
    <rect x="22" y="70" width="14" height="2"/>
    <rect x="28" y="82" width="10" height="2"/>
    <rect x="18" y="96" width="16" height="2"/>
    <rect x="36" y="36" width="8" height="2"/>
    <rect x="40" y="48" width="6" height="2"/>
    <rect x="34" y="68" width="10" height="2"/>
    <rect x="40" y="78" width="6" height="2"/>
    <rect x="36" y="90" width="8" height="2"/>
  </g>

  <!-- Ocean waves - North Sea / top -->
  <g fill="#1a6aaa" opacity="0.45">
    <rect x="110" y="4" width="16" height="2"/>
    <rect x="120" y="12" width="12" height="2"/>
    <rect x="132" y="6" width="14" height="2"/>
    <rect x="54" y="8" width="10" height="2"/>
    <rect x="60" y="16" width="8" height="2"/>
  </g>

  <!-- Ocean waves - Eastern Mediterranean / right -->
  <g fill="#1a6aaa" opacity="0.45">
    <rect x="264" y="36" width="16" height="2"/>
    <rect x="274" y="50" width="20" height="2"/>
    <rect x="260" y="62" width="14" height="2"/>
    <rect x="276" y="74" width="18" height="2"/>
    <rect x="264" y="88" width="22" height="2"/>
    <rect x="278" y="100" width="14" height="2"/>
    <rect x="302" y="40" width="14" height="2"/>
    <rect x="298" y="54" width="18" height="2"/>
    <rect x="304" y="68" width="12" height="2"/>
    <rect x="296" y="82" width="20" height="2"/>
  </g>

  <!-- Iceland -->
  <g fill="#2f7f55" opacity="0.9">
    <rect x="12" y="8" width="8" height="8"/>
    <rect x="20" y="8" width="8" height="8"/>
    <rect x="16" y="16" width="8" height="8"/>
  </g>
  <g fill="#66b676" opacity="0.75">
    <rect x="14" y="10" width="4" height="4"/>
  </g>

  <!-- British Isles - Ireland -->
  <g fill="#2f7f55">
    <rect x="76" y="14" width="8" height="8"/>
    <rect x="76" y="22" width="8" height="8"/>
    <rect x="84" y="18" width="8" height="8"/>
  </g>

  <!-- British Isles - Great Britain -->
  <g fill="#2f7f55">
    <rect x="88" y="6" width="8" height="8"/>
    <rect x="96" y="6" width="8" height="8"/>
    <rect x="88" y="14" width="8" height="8"/>
    <rect x="96" y="14" width="8" height="8"/>
    <rect x="104" y="14" width="8" height="8"/>
    <rect x="96" y="22" width="8" height="8"/>
    <rect x="104" y="22" width="8" height="8"/>
  </g>
  <g fill="#66b676" opacity="0.8">
    <rect x="90" y="8" width="4" height="4"/>
    <rect x="100" y="16" width="4" height="4"/>
  </g>

  <!-- Scandinavia -->
  <g fill="#2f7f55">
    <rect x="148" y="8" width="8" height="8"/>
    <rect x="156" y="6" width="8" height="8"/>
    <rect x="164" y="8" width="8" height="8"/>
    <rect x="148" y="16" width="8" height="8"/>
    <rect x="156" y="16" width="8" height="8"/>
    <rect x="164" y="16" width="8" height="8"/>
    <rect x="156" y="24" width="8" height="8"/>
    <rect x="172" y="10" width="8" height="8"/>
    <rect x="172" y="18" width="8" height="8"/>
  </g>
  <g fill="#66b676" opacity="0.7">
    <rect x="158" y="10" width="4" height="4"/>
    <rect x="166" y="20" width="4" height="4"/>
  </g>

  <!-- Main European landmass (unchanged) -->
  <g fill="#2f7f55">
    <rect x="88" y="30" width="10" height="10"/>
    <rect x="98" y="30" width="10" height="10"/>
    <rect x="108" y="30" width="10" height="10"/>
    <rect x="118" y="30" width="10" height="10"/>
    <rect x="128" y="30" width="10" height="10"/>
    <rect x="138" y="30" width="10" height="10"/>

    <rect x="78" y="40" width="10" height="10"/>
    <rect x="88" y="40" width="10" height="10"/>
    <rect x="98" y="40" width="10" height="10"/>
    <rect x="108" y="40" width="10" height="10"/>
    <rect x="118" y="40" width="10" height="10"/>
    <rect x="128" y="40" width="10" height="10"/>
    <rect x="138" y="40" width="10" height="10"/>
    <rect x="148" y="40" width="10" height="10"/>
    <rect x="158" y="40" width="10" height="10"/>

    <rect x="68" y="50" width="10" height="10"/>
    <rect x="78" y="50" width="10" height="10"/>
    <rect x="88" y="50" width="10" height="10"/>
    <rect x="98" y="50" width="10" height="10"/>
    <rect x="108" y="50" width="10" height="10"/>
    <rect x="118" y="50" width="10" height="10"/>
    <rect x="128" y="50" width="10" height="10"/>
    <rect x="138" y="50" width="10" height="10"/>
    <rect x="148" y="50" width="10" height="10"/>
    <rect x="158" y="50" width="10" height="10"/>
    <rect x="168" y="50" width="10" height="10"/>
    <rect x="178" y="50" width="10" height="10"/>
    <rect x="188" y="50" width="10" height="10"/>

    <rect x="58" y="60" width="10" height="10"/>
    <rect x="68" y="60" width="10" height="10"/>
    <rect x="78" y="60" width="10" height="10"/>
    <rect x="88" y="60" width="10" height="10"/>
    <rect x="98" y="60" width="10" height="10"/>
    <rect x="108" y="60" width="10" height="10"/>
    <rect x="118" y="60" width="10" height="10"/>
    <rect x="128" y="60" width="10" height="10"/>
    <rect x="138" y="60" width="10" height="10"/>
    <rect x="148" y="60" width="10" height="10"/>
    <rect x="158" y="60" width="10" height="10"/>
    <rect x="168" y="60" width="10" height="10"/>
    <rect x="178" y="60" width="10" height="10"/>
    <rect x="188" y="60" width="10" height="10"/>

    <rect x="68" y="70" width="10" height="10"/>
    <rect x="78" y="70" width="10" height="10"/>
    <rect x="88" y="70" width="10" height="10"/>
    <rect x="98" y="70" width="10" height="10"/>
    <rect x="108" y="70" width="10" height="10"/>
    <rect x="118" y="70" width="10" height="10"/>
    <rect x="128" y="70" width="10" height="10"/>
    <rect x="138" y="70" width="10" height="10"/>
    <rect x="148" y="70" width="10" height="10"/>
    <rect x="158" y="70" width="10" height="10"/>
    <rect x="168" y="70" width="10" height="10"/>
    <rect x="178" y="70" width="10" height="10"/>

    <rect x="78" y="80" width="10" height="10"/>
    <rect x="88" y="80" width="10" height="10"/>
    <rect x="98" y="80" width="10" height="10"/>
    <rect x="108" y="80" width="10" height="10"/>
    <rect x="118" y="80" width="10" height="10"/>
    <rect x="128" y="80" width="10" height="10"/>
    <rect x="138" y="80" width="10" height="10"/>
    <rect x="148" y="80" width="10" height="10"/>
    <rect x="158" y="80" width="10" height="10"/>
    <rect x="168" y="80" width="10" height="10"/>

    <rect x="88" y="90" width="10" height="10"/>
    <rect x="98" y="90" width="10" height="10"/>
    <rect x="108" y="90" width="10" height="10"/>
    <rect x="118" y="90" width="10" height="10"/>
    <rect x="128" y="90" width="10" height="10"/>
    <rect x="138" y="90" width="10" height="10"/>
  </g>

  <!-- Landmass highlights -->
  <g fill="#66b676">
    <rect x="88" y="40" width="10" height="10"/>
    <rect x="118" y="40" width="10" height="10"/>
    <rect x="138" y="50" width="10" height="10"/>
    <rect x="158" y="60" width="10" height="10"/>
    <rect x="108" y="70" width="10" height="10"/>
    <rect x="98" y="80" width="10" height="10"/>
  </g>

  <!-- Landmass shadow edges -->
  <g fill="#1f5f3e">
    <rect x="58" y="60" width="10" height="10"/>
    <rect x="68" y="70" width="10" height="10"/>
    <rect x="78" y="80" width="10" height="10"/>
    <rect x="88" y="90" width="10" height="10"/>
    <rect x="178" y="50" width="10" height="10"/>
    <rect x="188" y="60" width="10" height="10"/>
  </g>

  <!-- Eastern Europe / Poland-Romania-Ukraine area -->
  <g fill="#2f7f55" opacity="0.9">
    <rect x="198" y="38" width="8" height="8"/>
    <rect x="206" y="36" width="8" height="8"/>
    <rect x="214" y="34" width="8" height="8"/>
    <rect x="222" y="36" width="8" height="8"/>
    <rect x="198" y="46" width="8" height="8"/>
    <rect x="206" y="46" width="8" height="8"/>
    <rect x="214" y="44" width="8" height="8"/>
    <rect x="222" y="44" width="8" height="8"/>
    <rect x="230" y="44" width="8" height="8"/>
    <rect x="206" y="54" width="8" height="8"/>
    <rect x="214" y="54" width="8" height="8"/>
    <rect x="222" y="54" width="8" height="8"/>
    <rect x="230" y="54" width="8" height="8"/>
    <rect x="214" y="62" width="8" height="8"/>
    <rect x="222" y="62" width="8" height="8"/>
    <rect x="230" y="62" width="8" height="8"/>
    <rect x="238" y="60" width="8" height="8"/>
  </g>
  <g fill="#1f5f3e" opacity="0.8">
    <rect x="238" y="68" width="8" height="8"/>
    <rect x="246" y="66" width="8" height="8"/>
  </g>

  <!-- Balkans / Anatolia hint -->
  <g fill="#2f7f55" opacity="0.75">
    <rect x="198" y="70" width="8" height="8"/>
    <rect x="206" y="68" width="8" height="8"/>
    <rect x="198" y="78" width="8" height="8"/>
    <rect x="206" y="76" width="8" height="8"/>
    <rect x="214" y="74" width="8" height="8"/>
    <rect x="222" y="72" width="8" height="8"/>
    <rect x="230" y="72" width="8" height="8"/>
    <rect x="238" y="76" width="8" height="8"/>
    <rect x="246" y="74" width="8" height="8"/>
    <rect x="254" y="76" width="8" height="8"/>
  </g>

  <!-- Portugal highlighted -->
  <g fill="#f7cf67">
    <rect x="58" y="70" width="10" height="10"/>
    <rect x="58" y="80" width="10" height="10"/>
    <rect x="60" y="82" width="4" height="4"/>
  </g>

  <!-- Lisbon node -->
  <g fill="#ff6f61">
    <rect x="62" y="74" width="4" height="4"/>
    <rect x="66" y="78" width="4" height="4"/>
  </g>
  <g fill="#9de9ff" opacity="0.7">
    <rect x="63" y="77" width="1" height="1"/>
    <rect x="64" y="78" width="1" height="1"/>
  </g>

  <!-- Atlantic coastal wake near Portugal -->
  <g fill="#d9f1ff" opacity="0.4">
    <rect x="48" y="68" width="8" height="1"/>
    <rect x="46" y="72" width="8" height="1"/>
    <rect x="48" y="76" width="8" height="1"/>
    <rect x="46" y="80" width="8" height="1"/>
    <rect x="50" y="84" width="6" height="1"/>
  </g>

  <!-- Portugal extra marker (southern tip/Algarve) -->
  <g fill="#f7cf67" opacity="0.9">
    <rect x="58" y="98" width="12" height="4"/>
    <rect x="58" y="102" width="4" height="10"/>
  </g>
  <g fill="#ff6f61" opacity="0.9">
    <rect x="61" y="100" width="3" height="3"/>
    <rect x="63" y="102" width="3" height="3"/>
  </g>

  <!-- Mediterranean coast separator -->
  <g fill="#9de9ff" opacity="0.5">
    <rect x="68" y="114" width="140" height="2"/>
    <rect x="210" y="114" width="50" height="2"/>
  </g>

  <!-- Mediterranean islands: Corsica/Sardinia/Sicily/Cyprus hint -->
  <g fill="#2f7f55" opacity="0.85">
    <rect x="130" y="108" width="8" height="6"/>
    <rect x="142" y="110" width="10" height="6"/>
    <rect x="158" y="108" width="8" height="6"/>
    <rect x="170" y="110" width="6" height="5"/>
    <rect x="218" y="106" width="8" height="6"/>
  </g>
  <g fill="#66b676" opacity="0.65">
    <rect x="132" y="110" width="4" height="3"/>
    <rect x="160" y="110" width="4" height="3"/>
  </g>

  <!-- North Africa - sandy coastline -->
  <g fill="#c8a45a" opacity="0.9">
    <rect x="68" y="122" width="10" height="8"/>
    <rect x="78" y="120" width="10" height="8"/>
    <rect x="88" y="118" width="10" height="8"/>
    <rect x="98" y="118" width="10" height="8"/>
    <rect x="108" y="118" width="10" height="8"/>
    <rect x="118" y="120" width="10" height="8"/>
    <rect x="128" y="120" width="10" height="8"/>
    <rect x="138" y="122" width="10" height="8"/>
    <rect x="148" y="122" width="10" height="8"/>
    <rect x="158" y="122" width="10" height="8"/>
    <rect x="168" y="122" width="10" height="8"/>
    <rect x="178" y="122" width="10" height="8"/>
    <rect x="188" y="122" width="10" height="8"/>
    <rect x="198" y="120" width="10" height="8"/>
    <rect x="208" y="118" width="10" height="8"/>
    <rect x="218" y="118" width="10" height="8"/>
    <rect x="228" y="120" width="10" height="8"/>
  </g>
  <g fill="#b8935a" opacity="0.65">
    <rect x="78" y="130" width="10" height="6"/>
    <rect x="108" y="128" width="10" height="6"/>
    <rect x="148" y="130" width="10" height="6"/>
    <rect x="178" y="128" width="10" height="6"/>
    <rect x="208" y="128" width="10" height="6"/>
  </g>

  <!-- Middle East/Levant coast hint -->
  <g fill="#c8a45a" opacity="0.7">
    <rect x="238" y="96" width="8" height="8"/>
    <rect x="246" y="94" width="8" height="8"/>
    <rect x="254" y="96" width="8" height="8"/>
    <rect x="246" y="104" width="8" height="8"/>
    <rect x="254" y="104" width="8" height="8"/>
  </g>

  <!-- Shipping lane suggestions -->
  <g fill="#9de9ff" opacity="0.25">
    <rect x="28" y="98" width="32" height="1"/>
    <rect x="20" y="110" width="44" height="1"/>
    <rect x="244" y="90" width="42" height="1"/>
    <rect x="252" y="102" width="38" height="1"/>
  </g>
</svg>
