<svg xmlns="http://www.w3.org/2000/svg" viewBox="0 0 320 220" shape-rendering="crispEdges">
  <rect width="320" height="220" fill="#103b6d"/>
  <rect y="146" width="320" height="74" fill="#0c315b"/>
  <rect y="182" width="320" height="38" fill="#082548"/>

  <!-- Grid overlay -->
  <g fill="#1f5b8e" opacity="0.35">
    <rect x="0" y="28" width="320" height="2"/>
    <rect x="0" y="56" width="320" height="2"/>
    <rect x="0" y="84" width="320" height="2"/>
    <rect x="0" y="112" width="320" height="2"/>
    <rect x="0" y="140" width="320" height="2"/>
    <rect x="0" y="168" width="320" height="2"/>
    <rect x="44" y="0" width="2" height="220"/>
    <rect x="94" y="0" width="2" height="220"/>
    <rect x="144" y="0" width="2" height="220"/>
    <rect x="194" y="0" width="2" height="220"/>
    <rect x="244" y="0" width="2" height="220"/>
  </g>

  <!-- Water texture -->
  <g fill="#1a6aaa" opacity="0.46">
    <rect x="8" y="34" width="20" height="2"/>
    <rect x="18" y="46" width="14" height="2"/>
    <rect x="6" y="58" width="16" height="2"/>
    <rect x="12" y="70" width="22" height="2"/>
    <rect x="8" y="82" width="15" height="2"/>
    <rect x="22" y="94" width="19" height="2"/>
    <rect x="10" y="106" width="12" height="2"/>
    <rect x="260" y="40" width="18" height="2"/>
    <rect x="272" y="54" width="20" height="2"/>
    <rect x="258" y="68" width="16" height="2"/>
    <rect x="276" y="82" width="18" height="2"/>
    <rect x="264" y="96" width="22" height="2"/>
    <rect x="278" y="110" width="16" height="2"/>
    <rect x="22" y="160" width="28" height="2"/>
    <rect x="12" y="174" width="18" height="2"/>
    <rect x="40" y="188" width="20" height="2"/>
    <rect x="248" y="164" width="26" height="2"/>
    <rect x="262" y="178" width="18" height="2"/>
    <rect x="236" y="194" width="20" height="2"/>
  </g>

  <!-- Iceland -->
  <g fill="#2f7f55">
    <rect x="10" y="8" width="8" height="8"/>
    <rect x="18" y="8" width="8" height="8"/>
    <rect x="14" y="16" width="8" height="8"/>
  </g>
  <g fill="#66b676" opacity="0.8">
    <rect x="13" y="10" width="4" height="4"/>
  </g>

  <!-- British Isles -->
  <g fill="#2f7f55">
    <rect x="74" y="16" width="8" height="8"/>
    <rect x="74" y="24" width="8" height="8"/>
    <rect x="82" y="20" width="8" height="8"/>
    <rect x="88" y="8" width="8" height="8"/>
    <rect x="96" y="8" width="8" height="8"/>
    <rect x="88" y="16" width="8" height="8"/>
    <rect x="96" y="16" width="8" height="8"/>
    <rect x="104" y="18" width="8" height="8"/>
    <rect x="96" y="24" width="8" height="8"/>
  </g>

  <!-- Scandinavia -->
  <g fill="#2f7f55">
    <rect x="150" y="8" width="8" height="8"/>
    <rect x="158" y="6" width="8" height="8"/>
    <rect x="166" y="8" width="8" height="8"/>
    <rect x="150" y="16" width="8" height="8"/>
    <rect x="158" y="16" width="8" height="8"/>
    <rect x="166" y="16" width="8" height="8"/>
    <rect x="158" y="24" width="8" height="8"/>
    <rect x="174" y="12" width="8" height="8"/>
    <rect x="174" y="20" width="8" height="8"/>
  </g>

  <!-- Continental Europe -->
  <g fill="#2f7f55">
    <rect x="88" y="34" width="10" height="10"/>
    <rect x="98" y="34" width="10" height="10"/>
    <rect x="108" y="34" width="10" height="10"/>
    <rect x="118" y="34" width="10" height="10"/>
    <rect x="128" y="34" width="10" height="10"/>
    <rect x="138" y="34" width="10" height="10"/>
    <rect x="78" y="44" width="10" height="10"/>
    <rect x="88" y="44" width="10" height="10"/>
    <rect x="98" y="44" width="10" height="10"/>
    <rect x="108" y="44" width="10" height="10"/>
    <rect x="118" y="44" width="10" height="10"/>
    <rect x="128" y="44" width="10" height="10"/>
    <rect x="138" y="44" width="10" height="10"/>
    <rect x="148" y="44" width="10" height="10"/>
    <rect x="158" y="44" width="10" height="10"/>
    <rect x="68" y="54" width="10" height="10"/>
    <rect x="78" y="54" width="10" height="10"/>
    <rect x="88" y="54" width="10" height="10"/>
    <rect x="98" y="54" width="10" height="10"/>
    <rect x="108" y="54" width="10" height="10"/>
    <rect x="118" y="54" width="10" height="10"/>
    <rect x="128" y="54" width="10" height="10"/>
    <rect x="138" y="54" width="10" height="10"/>
    <rect x="148" y="54" width="10" height="10"/>
    <rect x="158" y="54" width="10" height="10"/>
    <rect x="168" y="54" width="10" height="10"/>
    <rect x="178" y="54" width="10" height="10"/>
    <rect x="188" y="54" width="10" height="10"/>
    <rect x="58" y="64" width="10" height="10"/>
    <rect x="68" y="64" width="10" height="10"/>
    <rect x="78" y="64" width="10" height="10"/>
    <rect x="88" y="64" width="10" height="10"/>
    <rect x="98" y="64" width="10" height="10"/>
    <rect x="108" y="64" width="10" height="10"/>
    <rect x="118" y="64" width="10" height="10"/>
    <rect x="128" y="64" width="10" height="10"/>
    <rect x="138" y="64" width="10" height="10"/>
    <rect x="148" y="64" width="10" height="10"/>
    <rect x="158" y="64" width="10" height="10"/>
    <rect x="168" y="64" width="10" height="10"/>
    <rect x="178" y="64" width="10" height="10"/>
    <rect x="188" y="64" width="10" height="10"/>
    <rect x="68" y="74" width="10" height="10"/>
    <rect x="78" y="74" width="10" height="10"/>
    <rect x="88" y="74" width="10" height="10"/>
    <rect x="98" y="74" width="10" height="10"/>
    <rect x="108" y="74" width="10" height="10"/>
    <rect x="118" y="74" width="10" height="10"/>
    <rect x="128" y="74" width="10" height="10"/>
    <rect x="138" y="74" width="10" height="10"/>
    <rect x="148" y="74" width="10" height="10"/>
    <rect x="158" y="74" width="10" height="10"/>
    <rect x="168" y="74" width="10" height="10"/>
    <rect x="178" y="74" width="10" height="10"/>
    <rect x="78" y="84" width="10" height="10"/>
    <rect x="88" y="84" width="10" height="10"/>
    <rect x="98" y="84" width="10" height="10"/>
    <rect x="108" y="84" width="10" height="10"/>
    <rect x="118" y="84" width="10" height="10"/>
    <rect x="128" y="84" width="10" height="10"/>
    <rect x="138" y="84" width="10" height="10"/>
    <rect x="148" y="84" width="10" height="10"/>
    <rect x="158" y="84" width="10" height="10"/>
    <rect x="168" y="84" width="10" height="10"/>
    <rect x="88" y="94" width="10" height="10"/>
    <rect x="98" y="94" width="10" height="10"/>
    <rect x="108" y="94" width="10" height="10"/>
    <rect x="118" y="94" width="10" height="10"/>
    <rect x="128" y="94" width="10" height="10"/>
    <rect x="138" y="94" width="10" height="10"/>
  </g>

  <!-- Eastern Europe to Western Russia -->
  <g fill="#2f7f55" opacity="0.92">
    <rect x="198" y="40" width="8" height="8"/>
    <rect x="206" y="38" width="8" height="8"/>
    <rect x="214" y="36" width="8" height="8"/>
    <rect x="222" y="38" width="8" height="8"/>
    <rect x="198" y="48" width="8" height="8"/>
    <rect x="206" y="48" width="8" height="8"/>
    <rect x="214" y="46" width="8" height="8"/>
    <rect x="222" y="46" width="8" height="8"/>
    <rect x="230" y="46" width="8" height="8"/>
    <rect x="238" y="44" width="8" height="8"/>
    <rect x="246" y="42" width="8" height="8"/>
    <rect x="254" y="40" width="8" height="8"/>
    <rect x="262" y="38" width="8" height="8"/>
    <rect x="270" y="36" width="8" height="8"/>
    <rect x="278" y="36" width="8" height="8"/>
    <rect x="286" y="38" width="8" height="8"/>
    <rect x="294" y="40" width="8" height="8"/>
    <rect x="302" y="42" width="8" height="8"/>
    <rect x="214" y="56" width="8" height="8"/>
    <rect x="222" y="56" width="8" height="8"/>
    <rect x="230" y="56" width="8" height="8"/>
    <rect x="238" y="54" width="8" height="8"/>
    <rect x="246" y="52" width="8" height="8"/>
    <rect x="254" y="50" width="8" height="8"/>
    <rect x="262" y="50" width="8" height="8"/>
    <rect x="270" y="50" width="8" height="8"/>
    <rect x="278" y="50" width="8" height="8"/>
    <rect x="286" y="52" width="8" height="8"/>
    <rect x="294" y="54" width="8" height="8"/>
    <rect x="302" y="56" width="8" height="8"/>
    <rect x="230" y="64" width="8" height="8"/>
    <rect x="238" y="64" width="8" height="8"/>
    <rect x="246" y="62" width="8" height="8"/>
    <rect x="254" y="62" width="8" height="8"/>
    <rect x="262" y="62" width="8" height="8"/>
    <rect x="270" y="64" width="8" height="8"/>
    <rect x="278" y="66" width="8" height="8"/>
    <rect x="286" y="68" width="8" height="8"/>
  </g>

  <!-- Balkans + Anatolia hint -->
  <g fill="#2f7f55" opacity="0.78">
    <rect x="198" y="72" width="8" height="8"/>
    <rect x="206" y="70" width="8" height="8"/>
    <rect x="214" y="78" width="8" height="8"/>
    <rect x="222" y="76" width="8" height="8"/>
    <rect x="230" y="76" width="8" height="8"/>
    <rect x="238" y="80" width="8" height="8"/>
    <rect x="246" y="78" width="8" height="8"/>
    <rect x="254" y="80" width="8" height="8"/>
  </g>

  <!-- Baltic and Caspian detail -->
  <g fill="#2f7f55" opacity="0.78">
    <rect x="202" y="32" width="6" height="4"/>
    <rect x="210" y="30" width="6" height="4"/>
    <rect x="242" y="76" width="6" height="4"/>
    <rect x="250" y="84" width="6" height="4"/>
  </g>

  <!-- North Africa coast + inland band -->
  <g fill="#c8a45a" opacity="0.92">
    <rect x="64" y="122" width="10" height="8"/>
    <rect x="74" y="120" width="10" height="8"/>
    <rect x="84" y="118" width="10" height="8"/>
    <rect x="94" y="118" width="10" height="8"/>
    <rect x="104" y="118" width="10" height="8"/>
    <rect x="114" y="120" width="10" height="8"/>
    <rect x="124" y="120" width="10" height="8"/>
    <rect x="134" y="122" width="10" height="8"/>
    <rect x="144" y="122" width="10" height="8"/>
    <rect x="154" y="122" width="10" height="8"/>
    <rect x="164" y="122" width="10" height="8"/>
    <rect x="174" y="122" width="10" height="8"/>
    <rect x="184" y="122" width="10" height="8"/>
    <rect x="194" y="120" width="10" height="8"/>
    <rect x="204" y="118" width="10" height="8"/>
    <rect x="214" y="118" width="10" height="8"/>
    <rect x="224" y="120" width="10" height="8"/>
  </g>
  <g fill="#b8935a" opacity="0.75">
    <rect x="74" y="130" width="10" height="7"/>
    <rect x="104" y="128" width="10" height="8"/>
    <rect x="134" y="130" width="10" height="8"/>
    <rect x="164" y="128" width="10" height="8"/>
    <rect x="194" y="130" width="10" height="8"/>
    <rect x="224" y="132" width="10" height="8"/>
    <rect x="84" y="140" width="10" height="8"/>
    <rect x="114" y="140" width="10" height="8"/>
    <rect x="144" y="142" width="10" height="8"/>
    <rect x="174" y="140" width="10" height="8"/>
    <rect x="204" y="142" width="10" height="8"/>
    <rect x="90" y="150" width="10" height="8"/>
    <rect x="120" y="150" width="10" height="8"/>
    <rect x="150" y="152" width="10" height="8"/>
    <rect x="180" y="150" width="10" height="8"/>
    <rect x="210" y="152" width="10" height="8"/>
    <rect x="230" y="148" width="10" height="8"/>
    <rect x="96" y="160" width="10" height="8"/>
    <rect x="126" y="160" width="10" height="8"/>
    <rect x="156" y="162" width="10" height="8"/>
    <rect x="186" y="160" width="10" height="8"/>
    <rect x="216" y="162" width="10" height="8"/>
    <rect x="104" y="170" width="10" height="8"/>
    <rect x="136" y="170" width="10" height="8"/>
    <rect x="168" y="172" width="10" height="8"/>
    <rect x="200" y="170" width="10" height="8"/>
    <rect x="112" y="180" width="10" height="8"/>
    <rect x="146" y="180" width="10" height="8"/>
    <rect x="180" y="182" width="10" height="8"/>
    <rect x="92" y="188" width="10" height="8"/>
    <rect x="124" y="188" width="10" height="8"/>
    <rect x="156" y="190" width="10" height="8"/>
    <rect x="188" y="188" width="10" height="8"/>
    <rect x="220" y="186" width="10" height="8"/>
    <rect x="98" y="198" width="10" height="8"/>
    <rect x="132" y="198" width="10" height="8"/>
    <rect x="166" y="200" width="10" height="8"/>
    <rect x="200" y="198" width="10" height="8"/>
    <rect x="232" y="194" width="10" height="8"/>
  </g>

  <!-- African interior plateau to make southern expansion clearer -->
  <g fill="#c8a45a" opacity="0.82">
    <rect x="98" y="154" width="12" height="10"/>
    <rect x="112" y="154" width="12" height="10"/>
    <rect x="126" y="156" width="12" height="10"/>
    <rect x="140" y="156" width="12" height="10"/>
    <rect x="154" y="158" width="12" height="10"/>
    <rect x="168" y="158" width="12" height="10"/>
    <rect x="182" y="158" width="12" height="10"/>
    <rect x="196" y="156" width="12" height="10"/>
    <rect x="210" y="154" width="12" height="10"/>
    <rect x="104" y="168" width="12" height="10"/>
    <rect x="118" y="170" width="12" height="10"/>
    <rect x="132" y="170" width="12" height="10"/>
    <rect x="146" y="172" width="12" height="10"/>
    <rect x="160" y="172" width="12" height="10"/>
    <rect x="174" y="170" width="12" height="10"/>
    <rect x="188" y="168" width="12" height="10"/>
    <rect x="202" y="166" width="12" height="10"/>
    <rect x="118" y="182" width="12" height="10"/>
    <rect x="132" y="184" width="12" height="10"/>
    <rect x="146" y="186" width="12" height="10"/>
    <rect x="160" y="186" width="12" height="10"/>
    <rect x="174" y="184" width="12" height="10"/>
    <rect x="188" y="182" width="12" height="10"/>
    <rect x="202" y="180" width="12" height="10"/>
    <rect x="216" y="176" width="12" height="10"/>
  </g>

  <!-- West Africa coastline extension -->
  <g fill="#b8935a" opacity="0.78">
    <rect x="52" y="146" width="10" height="10"/>
    <rect x="56" y="156" width="10" height="10"/>
    <rect x="60" y="166" width="10" height="10"/>
    <rect x="64" y="176" width="10" height="10"/>
    <rect x="68" y="186" width="10" height="10"/>
  </g>
  <g fill="#9f7d4e" opacity="0.7">
    <rect x="62" y="154" width="8" height="8"/>
    <rect x="66" y="164" width="8" height="8"/>
    <rect x="70" y="174" width="8" height="8"/>
    <rect x="98" y="164" width="8" height="8"/>
    <rect x="132" y="174" width="8" height="8"/>
    <rect x="170" y="176" width="8" height="8"/>
    <rect x="208" y="172" width="8" height="8"/>
    <rect x="138" y="192" width="8" height="8"/>
    <rect x="172" y="194" width="8" height="8"/>
    <rect x="204" y="190" width="8" height="8"/>
  </g>

  <!-- Eastern Mediterranean / Middle East coast fill -->
  <g fill="#c8a45a" opacity="0.8">
    <rect x="234" y="126" width="8" height="8"/>
    <rect x="242" y="124" width="8" height="8"/>
    <rect x="250" y="126" width="8" height="8"/>
    <rect x="258" y="132" width="8" height="8"/>
    <rect x="266" y="138" width="8" height="8"/>
    <rect x="272" y="146" width="8" height="8"/>
  </g>

  <!-- Mediterranean separators and islands -->
  <g fill="#9de9ff" opacity="0.5">
    <rect x="68" y="114" width="150" height="2"/>
    <rect x="220" y="114" width="48" height="2"/>
  </g>
  <g fill="#2f7f55" opacity="0.85">
    <rect x="126" y="108" width="8" height="6"/>
    <rect x="138" y="110" width="10" height="6"/>
    <rect x="156" y="108" width="8" height="6"/>
    <rect x="168" y="110" width="6" height="5"/>
    <rect x="216" y="106" width="8" height="6"/>
    <rect x="48" y="104" width="6" height="4"/>
    <rect x="56" y="102" width="8" height="4"/>
    <rect x="74" y="152" width="6" height="4"/>
    <rect x="82" y="160" width="6" height="4"/>
    <rect x="92" y="168" width="7" height="4"/>
    <rect x="232" y="152" width="8" height="4"/>
    <rect x="242" y="160" width="8" height="4"/>
    <rect x="252" y="170" width="8" height="4"/>
  </g>

  <!-- Land highlights and shadows -->
  <g fill="#66b676" opacity="0.72">
    <rect x="88" y="44" width="10" height="10"/>
    <rect x="118" y="44" width="10" height="10"/>
    <rect x="138" y="54" width="10" height="10"/>
    <rect x="158" y="64" width="10" height="10"/>
    <rect x="108" y="74" width="10" height="10"/>
    <rect x="98" y="84" width="10" height="10"/>
    <rect x="230" y="46" width="8" height="8"/>
    <rect x="262" y="50" width="8" height="8"/>
    <rect x="286" y="52" width="8" height="8"/>
  </g>
  <g fill="#1f5f3e" opacity="0.84">
    <rect x="58" y="64" width="10" height="10"/>
    <rect x="68" y="74" width="10" height="10"/>
    <rect x="78" y="84" width="10" height="10"/>
    <rect x="88" y="94" width="10" height="10"/>
    <rect x="286" y="68" width="8" height="8"/>
    <rect x="294" y="70" width="8" height="8"/>
  </g>

  <!-- Portugal highlight + Lisbon node -->
  <g fill="#f7cf67">
    <rect x="58" y="72" width="10" height="10"/>
    <rect x="58" y="82" width="10" height="10"/>
    <rect x="60" y="84" width="4" height="4"/>
  </g>
  <g fill="#ff6f61">
    <rect x="62" y="76" width="4" height="4"/>
    <rect x="66" y="80" width="4" height="4"/>
    <rect x="61" y="98" width="3" height="3"/>
  </g>

  <!-- Shipping lanes and southern currents -->
  <g fill="#9de9ff" opacity="0.26">
    <rect x="24" y="98" width="34" height="1"/>
    <rect x="18" y="110" width="44" height="1"/>
    <rect x="246" y="92" width="42" height="1"/>
    <rect x="252" y="104" width="38" height="1"/>
    <rect x="40" y="164" width="72" height="1"/>
    <rect x="130" y="176" width="58" height="1"/>
    <rect x="212" y="186" width="70" height="1"/>
    <rect x="18" y="198" width="52" height="1"/>
    <rect x="86" y="206" width="64" height="1"/>
    <rect x="172" y="198" width="50" height="1"/>
    <rect x="236" y="208" width="58" height="1"/>
    <rect x="30" y="22" width="24" height="1"/>
    <rect x="112" y="18" width="18" height="1"/>
    <rect x="198" y="20" width="20" height="1"/>
    <rect x="266" y="24" width="22" height="1"/>
  </g>

  <!-- Southern ocean details to avoid empty deep-water areas -->
  <g fill="#1a6aaa" opacity="0.34">
    <rect x="12" y="188" width="24" height="2"/>
    <rect x="42" y="198" width="18" height="2"/>
    <rect x="76" y="192" width="22" height="2"/>
    <rect x="108" y="204" width="16" height="2"/>
    <rect x="162" y="196" width="20" height="2"/>
    <rect x="196" y="206" width="18" height="2"/>
    <rect x="236" y="194" width="20" height="2"/>
    <rect x="274" y="202" width="22" height="2"/>
  </g>

  <!-- Atlantic tiny archipelagos -->
  <g fill="#2f7f55" opacity="0.78">
    <rect x="22" y="170" width="4" height="3"/>
    <rect x="28" y="174" width="4" height="3"/>
    <rect x="36" y="166" width="4" height="3"/>
    <rect x="286" y="178" width="4" height="3"/>
    <rect x="292" y="182" width="4" height="3"/>
    <rect x="16" y="148" width="4" height="3"/>
    <rect x="24" y="154" width="4" height="3"/>
    <rect x="262" y="186" width="5" height="3"/>
    <rect x="270" y="192" width="5" height="3"/>
    <rect x="278" y="198" width="5" height="3"/>
    <rect x="238" y="206" width="5" height="3"/>
    <rect x="246" y="210" width="5" height="3"/>
  </g>

  <!-- Sandy island chains (Canary/Cape Verde/Madagascar vibe) -->
  <g fill="#c8a45a" opacity="0.88">
    <rect x="30" y="160" width="5" height="3"/>
    <rect x="38" y="166" width="5" height="3"/>
    <rect x="46" y="172" width="5" height="3"/>
    <rect x="258" y="198" width="6" height="4"/>
    <rect x="266" y="206" width="6" height="4"/>
    <rect x="274" y="214" width="6" height="4"/>
  </g>
</svg>
